{
  "accessors": [
    {
      "bufferView": 2,
      "componentType": 5126,
      "count": 198,
      "max": [
        0.9166666865348816,
        0.8801722526550293,
        0.8395062685012817
      ],
      "min": [
        -0.9166666865348816,
        -1.5632678270339966,
        -15.338189125061035
      ],
      "type": "VEC3"
    },
    {
      "bufferView": 2,
      "byteOffset": 2376,
      "componentType": 5126,
      "count": 198,
      "max": [
        1.0,
        0.9998927116394043,
        1.0
      ],
      "min": [
        -1.0,
        -0.9999668598175049,
        -0.9958613514900208
      ],
      "type": "VEC3"
    },
    {
      "bufferView": 1,
      "componentType": 5126,
      "count": 198,
      "max": [
        0.8750001192092896,
        1.0000001192092896
      ],
      "min": [
        0.1250000149011612,
        0.0
      ],
      "type": "VEC2"
    },
    {
      "bufferView": 0,
      "componentType": 5125,
      "count": 624,
      "type": "SCALAR"
    },
    {
      "bufferView": 2,
      "byteOffset": 4752,
      "componentType": 5126,
      "count": 198,
      "max": [
        0.9166666865348816,
        0.8801722526550293,
        0.8395062685012817
      ],
      "min": [
        -0.9166666865348816,
        -1.5632678270339966,
        -15.338189125061035
      ],
      "type": "VEC3"
    },
    {
      "bufferView": 2,
      "byteOffset": 7128,
      "componentType": 5126,
      "count": 198,
      "max": [
        1.0,
        0.9998927116394043,
        1.0
      ],
      "min": [
        -1.0,
        -0.9999668598175049,
        -0.9958613514900208
      ],
      "type": "VEC3"
    },
    {
      "bufferView": 1,
      "byteOffset": 1584,
      "componentType": 5126,
      "count": 198,
      "max": [
        0.8750001192092896,
        1.0000001192092896
      ],
      "min": [
        0.1250000149011612,
        0.0
      ],
      "type": "VEC2"
    },
    {
      "bufferView": 0,
      "byteOffset": 2496,
      "componentType": 5125,
      "count": 624,
      "type": "SCALAR"
    },
    {
      "bufferView": 2,
      "byteOffset": 9504,
      "componentType": 5126,
      "count": 448,
      "max": [
        1.108762264251709,
        0.3901936411857605,
        1.108762264251709
      ],
      "min": [
        -1.108762264251709,
        -0.048716358840465546,
        -1.1087623834609985
      ],
      "type": "VEC3"
    },
    {
      "bufferView": 2,
      "byteOffset": 14880,
      "componentType": 5126,
      "count": 448,
      "max": [
        0.994020402431488,
        0.45443257689476013,
        0.994020402431488
      ],
      "min": [
        -0.994020402431488,
        0.10919544845819473,
        -0.994020402431488
      ],
      "type": "VEC3"
    },
    {
      "bufferView": 1,
      "byteOffset": 3168,
      "componentType": 5126,
      "count": 448,
      "max": [
        0.0,
        0.0
      ],
      "min": [
        0.0,
        0.0
      ],
      "type": "VEC2"
    },
    {
      "bufferView": 0,
      "byteOffset": 4992,
      "componentType": 5125,
      "count": 2304,
      "type": "SCALAR"
    },
    {
      "bufferView": 2,
      "byteOffset": 20256,
      "componentType": 5126,
      "count": 1696,
      "max": [
        1.1823647022247314,
        0.8275960087776184,
        1.1613106727600098
      ],
      "min": [
        -1.1882001161575317,
        -0.05112284794449806,
        -1.1621017456054688
      ],
      "type": "VEC3"
    },
    {
      "bufferView": 2,
      "byteOffset": 40608,
      "componentType": 5126,
      "count": 1696,
      "max": [
        0.9987000823020935,
        0.9910237193107605,
        0.998124361038208
      ],
      "min": [
        -0.9987062811851501,
        -0.9957426190376282,
        -0.99812251329422
      ],
      "type": "VEC3"
    },
    {
      "bufferView": 1,
      "byteOffset": 6752,
      "componentType": 5126,
      "count": 1696,
      "max": [
        6.800325393676758,
        6.275290012359619
      ],
      "min": [
        -5.770161151885986,
        -5.109422206878662
      ],
      "type": "VEC2"
    },
    {
      "bufferView": 0,
      "byteOffset": 14208,
      "componentType": 5125,
      "count": 7800,
      "type": "SCALAR"
    },
    {
      "bufferView": 2,
      "byteOffset": 60960,
      "componentType": 5126,
      "count": 125,
      "max": [
        0.3979458808898926,
        1.0,
        1.0
      ],
      "min": [
        -1.0,
        -1.0,
        -1.0
      ],
      "type": "VEC3"
    },
    {
      "bufferView": 2,
      "byteOffset": 62460,
      "componentType": 5126,
      "count": 125,
      "max": [
        0.9992474317550659,
        1.0,
        1.0
      ],
      "min": [
        -1.0,
        -1.0,
        -1.0
      ],
      "type": "VEC3"
    },
    {
      "bufferView": 1,
      "byteOffset": 20320,
      "componentType": 5126,
      "count": 125,
      "max": [
        0.8750001192092896,
        1.0000001192092896
      ],
      "min": [
        0.1250000149011612,
        0.0
      ],
      "type": "VEC2"
    },
    {
      "bufferView": 0,
      "byteOffset": 45408,
      "componentType": 5125,
      "count": 576,
      "type": "SCALAR"
    },
    {
      "bufferView": 2,
      "byteOffset": 63960,
      "componentType": 5126,
      "count": 128,
      "max": [
        1.0,
        0.0,
        1.0
      ],
      "min": [
        -1.0,
        -0.247919961810112,
        -1.0
      ],
      "type": "VEC3"
    },
    {
      "bufferView": 2,
      "byteOffset": 65496,
      "componentType": 5126,
      "count": 128,
      "max": [
        1.0,
        1.0,
        1.0
      ],
      "min": [
        -1.0,
        -1.0,
        -1.0
      ],
      "type": "VEC3"
    },
    {
      "bufferView": 1,
      "byteOffset": 21320,
      "componentType": 5126,
      "count": 128,
      "max": [
        0.0,
        0.0
      ],
      "min": [
        0.0,
        0.0
      ],
      "type": "VEC2"
    },
    {
      "bufferView": 0,
      "byteOffset": 47712,
      "componentType": 5125,
      "count": 372,
      "type": "SCALAR"
    },
    {
      "bufferView": 2,
      "byteOffset": 67032,
      "componentType": 5126,
      "count": 128,
      "max": [
        1.0,
        0.0,
        1.0
      ],
      "min": [
        -1.0,
        -0.247919961810112,
        -1.0
      ],
      "type": "VEC3"
    },
    {
      "bufferView": 2,
      "byteOffset": 68568,
      "componentType": 5126,
      "count": 128,
      "max": [
        1.0,
        1.0,
        1.0
      ],
      "min": [
        -1.0,
        -1.0,
        -1.0
      ],
      "type": "VEC3"
    },
    {
      "bufferView": 1,
      "byteOffset": 22344,
      "componentType": 5126,
      "count": 128,
      "max": [
        0.0,
        0.0
      ],
      "min": [
        0.0,
        0.0
      ],
      "type": "VEC2"
    },
    {
      "bufferView": 0,
      "byteOffset": 49200,
      "componentType": 5125,
      "count": 372,
      "type": "SCALAR"
    },
    {
      "bufferView": 2,
      "byteOffset": 70104,
      "componentType": 5126,
      "count": 128,
      "max": [
        1.0,
        0.0,
        1.0
      ],
      "min": [
        -1.0,
        -0.247919961810112,
        -1.0
      ],
      "type": "VEC3"
    },
    {
      "bufferView": 2,
      "byteOffset": 71640,
      "componentType": 5126,
      "count": 128,
      "max": [
        1.0,
        1.0,
        1.0
      ],
      "min": [
        -1.0,
        -1.0,
        -1.0
      ],
      "type": "VEC3"
    },
    {
      "bufferView": 1,
      "byteOffset": 23368,
      "componentType": 5126,
      "count": 128,
      "max": [
        0.0,
        0.0
      ],
      "min": [
        0.0,
        0.0
      ],
      "type": "VEC2"
    },
    {
      "bufferView": 0,
      "byteOffset": 50688,
      "componentType": 5125,
      "count": 372,
      "type": "SCALAR"
    },
    {
      "bufferView": 2,
      "byteOffset": 73176,
      "componentType": 5126,
      "count": 128,
      "max": [
        1.0,
        0.0,
        1.0
      ],
      "min": [
        -1.0,
        -0.247919961810112,
        -1.0
      ],
      "type": "VEC3"
    },
    {
      "bufferView": 2,
      "byteOffset": 74712,
      "componentType": 5126,
      "count": 128,
      "max": [
        1.0,
        1.0,
        1.0
      ],
      "min": [
        -1.0,
        -1.0,
        -1.0
      ],
      "type": "VEC3"
    },
    {
      "bufferView": 1,
      "byteOffset": 24392,
      "componentType": 5126,
      "count": 128,
      "max": [
        0.0,
        0.0
      ],
      "min": [
        0.0,
        0.0
      ],
      "type": "VEC2"
    },
    {
      "bufferView": 0,
      "byteOffset": 52176,
      "componentType": 5125,
      "count": 372,
      "type": "SCALAR"
    },
    {
      "bufferView": 2,
      "byteOffset": 76248,
      "componentType": 5126,
      "count": 2178,
      "max": [
        1.5248736143112183,
        1.1963127851486206,
        1.5863736867904663
      ],
      "min": [
        -1.6685054302215576,
        -0.11158791184425354,
        -1.5372198820114136
      ],
      "type": "VEC3"
    },
    {
      "bufferView": 2,
      "byteOffset": 102384,
      "componentType": 5126,
      "count": 2178,
      "max": [
        0.9998317956924438,
        0.9999828338623047,
        0.9990780353546143
      ],
      "min": [
        -0.9986706376075745,
        -0.9999972581863403,
        -0.9987776279449463
      ],
      "type": "VEC3"
    },
    {
      "bufferView": 1,
      "byteOffset": 25416,
      "componentType": 5126,
      "count": 2178,
      "max": [
        0.0,
        0.0
      ],
      "min": [
        0.0,
        0.0
      ],
      "type": "VEC2"
    },
    {
      "bufferView": 0,
      "byteOffset": 53664,
      "componentType": 5125,
      "count": 13056,
      "type": "SCALAR"
    },
    {
      "bufferView": 2,
      "byteOffset": 128520,
      "componentType": 5126,
      "count": 1088,
      "max": [
        1.098170518875122,
        0.8024457097053528,
        0.9816898703575134
      ],
      "min": [
        -1.2377225160598755,
        0.0,
        -0.9816898107528687
      ],
      "type": "VEC3"
    },
    {
      "bufferView": 2,
      "byteOffset": 141576,
      "componentType": 5126,
      "count": 1088,
      "max": [
        0.9999598264694214,
        0.2110711634159088,
        1.0
      ],
      "min": [
        -1.0,
        -0.5875000953674316,
        -1.0
      ],
      "type": "VEC3"
    },
    {
      "bufferView": 1,
      "byteOffset": 42840,
      "componentType": 5126,
      "count": 1088,
      "max": [
        0.0,
        0.0
      ],
      "min": [
        0.0,
        0.0
      ],
      "type": "VEC2"
    },
    {
      "bufferView": 0,
      "byteOffset": 105888,
      "componentType": 5125,
      "count": 6144,
      "type": "SCALAR"
    }
  ],
  "asset": {
    "extras": {
      "author": "Cmanflip (https://sketchfab.com/cmanflip)",
      "license": "CC-BY-4.0 (http://creativecommons.org/licenses/by/4.0/)",
      "source": "https://sketchfab.com/3d-models/haman-outfit-6fb1187a443047e0a2408d4bcf7b9496",
      "title": "Haman Outfit"
    },
    "generator": "Sketchfab-12.65.0",
    "version": "2.0"
  },
  "bufferViews": [
    {
      "buffer": 0,
      "byteLength": 130464,
      "name": "floatBufferViews",
      "target": 34963
    },
    {
      "buffer": 0,
      "byteLength": 51544,
      "byteOffset": 130464,
      "byteStride": 8,
      "name": "floatBufferViews",
      "target": 34962
    },
    {
      "buffer": 0,
      "byteLength": 154632,
      "byteOffset": 182008,
      "byteStride": 12,
      "name": "floatBufferViews",
      "target": 34962
    }
  ],
  "buffers": [
    {
      "byteLength": 336640,
      "uri": "scene.bin"
    }
  ],
  "images": [
    {
      "uri": "textures/Material.008_baseColor.png"
    }
  ],
  "materials": [
    {
      "doubleSided": true,
      "name": "Material",
      "pbrMetallicRoughness": {
        "baseColorFactor": [
          0.0356013,
          0.0103298,
          0.0,
          1.0
        ],
        "metallicFactor": 0.0,
        "roughnessFactor": 0.5
      }
    },
    {
      "doubleSided": true,
      "name": "Material.001",
      "pbrMetallicRoughness": {
        "baseColorFactor": [
          0.010329799999999998,
          0.002124689999999999,
          0.00242822,
          1.0
        ],
        "metallicFactor": 0.0,
        "roughnessFactor": 0.5
      }
    },
    {
      "doubleSided": true,
      "name": "Material.008",
      "pbrMetallicRoughness": {
        "baseColorTexture": {
          "index": 0
        },
        "metallicFactor": 0.0,
        "roughnessFactor": 0.5
      }
    },
    {
      "doubleSided": true,
      "name": "Material.004",
      "pbrMetallicRoughness": {
        "baseColorFactor": [
          0.0,
          0.0,
          0.0,
          1.0
        ]
      }
    },
    {
      "doubleSided": true,
      "name": "Material.005",
      "pbrMetallicRoughness": {
        "baseColorFactor": [
          0.0,
          0.0,
          0.0,
          1.0
        ],
        "metallicFactor": 0.0,
        "roughnessFactor": 0.5
      }
    },
    {
      "doubleSided": true,
      "name": "Material.010",
      "pbrMetallicRoughness": {
        "baseColorFactor": [
          0.7011019999999999,
          0.015208400000000007,
          0.03820440000000001,
          1.0
        ],
        "metallicFactor": 0.0,
        "roughnessFactor": 0.5
      }
    },
    {
      "doubleSided": true,
      "name": "Material.011",
      "pbrMetallicRoughness": {
        "baseColorFactor": [
          0.010329823029626938,
          0.002124688884841863,
          0.0024282158683906984,
          1.0
        ]
      }
    }
  ],
  "meshes": [
    {
      "name": "Object_0",
      "primitives": [
        {
          "attributes": {
            "NORMAL": 1,
            "POSITION": 0,
            "TEXCOORD_0": 2
          },
          "indices": 3,
          "material": 0,
          "mode": 4
        }
      ]
    },
    {
      "name": "Object_1",
      "primitives": [
        {
          "attributes": {
            "NORMAL": 5,
            "POSITION": 4,
            "TEXCOORD_0": 6
          },
          "indices": 7,
          "material": 0,
          "mode": 4
        }
      ]
    },
    {
      "name": "Object_2",
      "primitives": [
        {
          "attributes": {
            "NORMAL": 9,
            "POSITION": 8,
            "TEXCOORD_0": 10
          },
          "indices": 11,
          "material": 1,
          "mode": 4
        }
      ]
    },
    {
      "name": "Object_3",
      "primitives": [
        {
          "attributes": {
            "NORMAL": 13,
            "POSITION": 12,
            "TEXCOORD_0": 14
          },
          "indices": 15,
          "material": 2,
          "mode": 4
        }
      ]
    },
    {
      "name": "Object_4",
      "primitives": [
        {
          "attributes": {
            "NORMAL": 17,
            "POSITION": 16,
            "TEXCOORD_0": 18
          },
          "indices": 19,
          "material": 3,
          "mode": 4
        }
      ]
    },
    {
      "name": "Object_5",
      "primitives": [
        {
          "attributes": {
            "NORMAL": 21,
            "POSITION": 20,
            "TEXCOORD_0": 22
          },
          "indices": 23,
          "material": 4,
          "mode": 4
        }
      ]
    },
    {
      "name": "Object_6",
      "primitives": [
        {
          "attributes": {
            "NORMAL": 25,
            "POSITION": 24,
            "TEXCOORD_0": 26
          },
          "indices": 27,
          "material": 4,
          "mode": 4
        }
      ]
    },
    {
      "name": "Object_7",
      "primitives": [
        {
          "attributes": {
            "NORMAL": 29,
            "POSITION": 28,
            "TEXCOORD_0": 30
          },
          "indices": 31,
          "material": 4,
          "mode": 4
        }
      ]
    },
    {
      "name": "Object_8",
      "primitives": [
        {
          "attributes": {
            "NORMAL": 33,
            "POSITION": 32,
            "TEXCOORD_0": 34
          },
          "indices": 35,
          "material": 4,
          "mode": 4
        }
      ]
    },
    {
      "name": "Object_9",
      "primitives": [
        {
          "attributes": {
            "NORMAL": 37,
            "POSITION": 36,
            "TEXCOORD_0": 38
          },
          "indices": 39,
          "material": 5,
          "mode": 4
        }
      ]
    },
    {
      "name": "Object_10",
      "primitives": [
        {
          "attributes": {
            "NORMAL": 41,
            "POSITION": 40,
            "TEXCOORD_0": 42
          },
          "indices": 43,
          "material": 6,
          "mode": 4
        }
      ]
    }
  ],
  "nodes": [
    {
      "children": [
        1
      ],
      "matrix": [
        1.0,
        0.0,
        0.0,
        0.0,
        0.0,
        2.220446049250313e-16,
        -1.0,
        0.0,
        0.0,
        1.0,
        2.220446049250313e-16,
        0.0,
        0.0,
        0.0,
        0.0,
        1.0
      ],
      "name": "Sketchfab_model"
    },
    {
      "children": [
        2
      ],
      "name": "root"
    },
    {
      "children": [
        3,
        5,
        7,
        9,
        11,
        13,
        15,
        17,
        19,
        21,
        23
      ],
      "matrix": [
        1.0,
        0.0,
        0.0,
        0.0,
        0.0,
        2.220446049250313e-16,
        1.0,
        0.0,
        0.0,
        -1.0,
        2.220446049250313e-16,
        0.0,
        0.0,
        0.0,
        0.0,
        1.0
      ],
      "name": "GLTF_SceneRootNode"
    },
    {
      "children": [
        4
      ],
      "matrix": [
        0.06005777046084404,
        0.0,
        0.0,
        0.0,
        0.0,
        0.06005777046084404,
        0.0,
        0.0,
        0.0,
        0.0,
        0.06005777046084404,
        0.0,
        -2.3331730365753174,
        2.532189130783081,
        -0.18592259287834167,
        1.0
      ],
      "name": "Cube_0"
    },
    {
      "mesh": 0,
      "name": "Object_4"
    },
    {
      "children": [
        6
      ],
      "matrix": [
        -0.06005777046084084,
        0.0,
        1.9569306199253423e-08,
        0.0,
        0.0,
        0.06005777046084404,
        0.0,
        0.0,
        -1.9569306199253423e-08,
        0.0,
        -0.06005777046084084,
        0.0,
        -2.3331732749938965,
        2.532189130783081,
        0.17486229538917542,
        1.0
      ],
      "name": "Cube.002_1"
    },
    {
      "mesh": 1,
      "name": "Object_6"
    },
    {
      "children": [
        8
      ],
      "matrix": [
        2.225731372833252,
        0.0,
        0.0,
        0.0,
        0.0,
        2.225731372833252,
        0.0,
        0.0,
        0.0,
        0.0,
        2.225731372833252,
        0.0,
        0.0,
        0.7174029350280762,
        0.0,
        1.0
      ],
      "name": "Circle.002_2"
    },
    {
      "mesh": 2,
      "name": "Object_8"
    },
    {
      "children": [
        10
      ],
      "matrix": [
        2.287875175476074,
        0.0,
        0.0,
        0.0,
        0.0,
        2.287875175476074,
        0.0,
        0.0,
        0.0,
        0.0,
        2.287875175476074,
        0.0,
        0.0,
        0.7174029350280762,
        0.0,
        1.0
      ],
      "name": "Circle.005_3"
    },
    {
      "mesh": 3,
      "name": "Object_10"
    },
    {
      "children": [
        12
      ],
      "matrix": [
        0.17327147722244263,
        0.0,
        0.0,
        0.0,
        0.0,
        0.1821659803390503,
        0.0,
        0.0,
        0.0,
        0.0,
        0.17327147722244263,
        0.0,
        -2.4209585189819336,
        1.461052656173706,
        0.0,
        1.0
      ],
      "name": "Cube.003_4"
    },
    {
      "mesh": 4,
      "name": "Object_12"
    },
    {
      "children": [
        14
      ],
      "matrix": [
        0.016051728181518496,
        -0.07024090960155233,
        -0.000738066372074961,
        0.0,
        0.07016677525624516,
        0.016068687550106354,
        -0.0032263031154909625,
        0.0,
        0.0033096485859702056,
        4.7012004165170204e-11,
        0.07197940210555916,
        0.0,
        -2.557215929031372,
        1.053251028060913,
        -0.16818998754024506,
        1.0
      ],
      "name": "Circle.006_5"
    },
    {
      "mesh": 5,
      "name": "Object_14"
    },
    {
      "children": [
        16
      ],
      "matrix": [
        0.020671199801078205,
        -0.06900763009228075,
        -0.0016237576996714605,
        0.0,
        0.06821000111881567,
        0.02068093683103899,
        -0.010568003614596767,
        0.0,
        0.010587036761599534,
        0.0014946377734798364,
        0.07125776316845076,
        0.0,
        -2.5301480293273926,
        1.053251028060913,
        0.04984769970178604,
        1.0
      ],
      "name": "Circle.007_6"
    },
    {
      "mesh": 6,
      "name": "Object_16"
    },
    {
      "children": [
        18
      ],
      "matrix": [
        0.03306340944278673,
        -0.06401682219455507,
        0.0008034509106046558,
        0.0,
        0.0639979294398521,
        0.033073170052885924,
        0.0015551692194070927,
        0.0,
        -0.0017504527033721064,
        -2.7323596321870372e-11,
        0.07203418644344951,
        0.0,
        -2.4639296531677246,
        0.8550349473953247,
        -0.16818998754024506,
        1.0
      ],
      "name": "Circle.008_7"
    },
    {
      "mesh": 7,
      "name": "Object_18"
    },
    {
      "children": [
        20
      ],
      "matrix": [
        0.030696038312902456,
        -0.06486837671546035,
        -0.006468000883606494,
        0.0,
        0.06347456901188067,
        0.03137007815638191,
        -0.013374804165103758,
        0.0,
        0.014856662541944282,
        -9.350547664813974e-10,
        0.07050721721463114,
        0.0,
        -2.44343638420105,
        0.8550349473953247,
        0.04984769970178604,
        1.0
      ],
      "name": "Circle.009_8"
    },
    {
      "mesh": 8,
      "name": "Object_20"
    },
    {
      "children": [
        22
      ],
      "matrix": [
        1.5424766540527344,
        0.0,
        0.0,
        0.0,
        0.0,
        1.5424766540527344,
        0.0,
        0.0,
        0.0,
        0.0,
        1.5424766540527344,
        0.0,
        0.0,
        3.939582586288452,
        0.0,
        1.0
      ],
      "name": "Circle.010_9"
    },
    {
      "mesh": 9,
      "name": "Object_22"
    },
    {
      "children": [
        24
      ],
      "matrix": [
        1.5652931928634644,
        0.0,
        0.0,
        0.0,
        0.0,
        1.4330122470855713,
        0.0,
        0.0,
        0.0,
        0.0,
        1.5652931928634644,
        0.0,
        0.0,
        4.025241851806641,
        0.0,
        1.0
      ],
      "name": "Circle.011_10"
    },
    {
      "mesh": 10,
      "name": "Object_24"
    }
  ],
  "samplers": [
    {
      "magFilter": 9729,
      "minFilter": 9987,
      "wrapS": 10497,
      "wrapT": 10497
    }
  ],
  "scene": 0,
  "scenes": [
    {
      "name": "Sketchfab_Scene",
      "nodes": [
        0
      ]
    }
  ],
  "textures": [
    {
      "sampler": 0,
      "source": 0
    }
  ]
}
