{
  "accessors": [
    {
      "bufferView": 2,
      "componentType": 5126,
      "count": 1612,
      "max": [
        0.18832851946353912,
        0.2841894030570984,
        0.44320085644721985
      ],
      "min": [
        -0.19302822649478912,
        -0.14657287299633026,
        0.025716101750731468
      ],
      "type": "VEC3"
    },
    {
      "bufferView": 2,
      "byteOffset": 19344,
      "componentType": 5126,
      "count": 1612,
      "max": [
        0.9999077916145325,
        0.9965910911560059,
        0.9994409680366516
      ],
      "min": [
        -0.9998500347137451,
        -0.9998570084571838,
        -0.9969609975814819
      ],
      "type": "VEC3"
    },
    {
      "bufferView": 3,
      "componentType": 5126,
      "count": 1612,
      "max": [
        0.9999838471412659,
        0.9983967542648315,
        0.9910654425621033,
        1.0
      ],
      "min": [
        -0.9977919459342957,
        -0.9980459213256836,
        -0.9999281764030457,
        1.0
      ],
      "type": "VEC4"
    },
    {
      "bufferView": 1,
      "componentType": 5126,
      "count": 1612,
      "max": [
        0.9859002232551575,
        0.9828161001205444
      ],
      "min": [
        0.013914681039750576,
        0.013388198800384998
      ],
      "type": "VEC2"
    },
    {
      "bufferView": 1,
      "byteOffset": 12896,
      "componentType": 5126,
      "count": 1612,
      "max": [
        0.9859002232551575,
        0.9828161001205444
      ],
      "min": [
        0.013914681039750576,
        0.013388198800384998
      ],
      "type": "VEC2"
    },
    {
      "bufferView": 0,
      "componentType": 5125,
      "count": 8304,
      "type": "SCALAR"
    }
  ],
  "asset": {
    "extras": {
      "author": "dimamozby (https://sketchfab.com/dimamozby)",
      "license": "CC-BY-4.0 (http://creativecommons.org/licenses/by/4.0/)",
      "source": "https://sketchfab.com/3d-models/kufia-93e16e77fc0a47138b2656f61fefe8eb",
      "title": "Kufia"
    },
    "generator": "Sketchfab-12.68.0",
    "version": "2.0"
  },
  "bufferViews": [
    {
      "buffer": 0,
      "byteLength": 33216,
      "name": "floatBufferViews",
      "target": 34963
    },
    {
      "buffer": 0,
      "byteLength": 25792,
      "byteOffset": 33216,
      "byteStride": 8,
      "name": "floatBufferViews",
      "target": 34962
    },
    {
      "buffer": 0,
      "byteLength": 38688,
      "byteOffset": 59008,
      "byteStride": 12,
      "name": "floatBufferViews",
      "target": 34962
    },
    {
      "buffer": 0,
      "byteLength": 25792,
      "byteOffset": 97696,
      "byteStride": 16,
      "name": "floatBufferViews",
      "target": 34962
    }
  ],
  "buffers": [
    {
      "byteLength": 123488,
      "uri": "scene.bin"
    }
  ],
  "images": [
    {
      "uri": "textures/Kufia_Low_mat_baseColor.png"
    },
    {
      "uri": "textures/Kufia_Low_mat_metallicRoughness.png"
    },
    {
      "uri": "textures/Kufia_Low_mat_normal.png"
    }
  ],
  "materials": [
    {
      "doubleSided": true,
      "name": "Kufia_Low_mat",
      "normalTexture": {
        "index": 2
      },
      "pbrMetallicRoughness": {
        "baseColorTexture": {
          "index": 0
        },
        "metallicFactor": 0.0,
        "metallicRoughnessTexture": {
          "index": 1
        }
      }
    }
  ],
  "meshes": [
    {
      "name": "Kufia_Low_Kufia_Low_mat_0",
      "primitives": [
        {
          "attributes": {
            "NORMAL": 1,
            "POSITION": 0,
            "TANGENT": 2,
            "TEXCOORD_0": 3,
            "TEXCOORD_1": 4
          },
          "indices": 5,
          "material": 0,
          "mode": 4
        }
      ]
    }
  ],
  "nodes": [
    {
      "children": [
        1
      ],
      "matrix": [
        1.0,
        0.0,
        0.0,
        0.0,
        0.0,
        2.220446049250313e-16,
        -1.0,
        0.0,
        0.0,
        1.0,
        2.220446049250313e-16,
        0.0,
        0.0,
        0.0,
        0.0,
        1.0
      ],
      "name": "Sketchfab_model"
    },
    {
      "children": [
        2
      ],
      "matrix": [
        1.0,
        0.0,
        0.0,
        0.0,
        0.0,
        0.0,
        1.0,
        0.0,
        0.0,
        -1.0,
        0.0,
        0.0,
        0.0,
        0.0,
        0.0,
        1.0
      ],
      "name": "41a1ae9038b243219db532cf5d361a83.fbx"
    },
    {
      "children": [
        3
      ],
      "name": "RootNode"
    },
    {
      "children": [
        4
      ],
      "matrix": [
        100.0,
        0.0,
        0.0,
        0.0,
        0.0,
        -1.629206793918314e-05,
        -99.99999999999868,
        0.0,
        0.0,
        99.99999999999868,
        -1.629206793918314e-05,
        0.0,
        0.0,
        0.0,
        0.0,
        1.0
      ],
      "name": "Kufia_Low"
    },
    {
      "mesh": 0,
      "name": "Kufia_Low_Kufia_Low_mat_0"
    }
  ],
  "samplers": [
    {
      "magFilter": 9729,
      "minFilter": 9987,
      "wrapS": 10497,
      "wrapT": 10497
    }
  ],
  "scene": 0,
  "scenes": [
    {
      "name": "Sketchfab_Scene",
      "nodes": [
        0
      ]
    }
  ],
  "textures": [
    {
      "sampler": 0,
      "source": 0
    },
    {
      "sampler": 0,
      "source": 1
    },
    {
      "sampler": 0,
      "source": 2
    }
  ]
}
