{
  "accessors": [
    {
      "bufferView": 2,
      "componentType": 5126,
      "count": 30646,
      "max": [
        1.1495428085327148,
        1.3677984476089478,
        1.2094014883041382
      ],
      "min": [
        -1.1495416164398193,
        -0.9840710759162903,
        -1.0908854007720947
      ],
      "type": "VEC3"
    },
    {
      "bufferView": 2,
      "byteOffset": 367752,
      "componentType": 5126,
      "count": 30646,
      "max": [
        1.0,
        0.9986097812652588,
        0.9999985694885254
      ],
      "min": [
        -1.0,
        -0.9999988079071045,
        -0.9997090101242065
      ],
      "type": "VEC3"
    },
    {
      "bufferView": 3,
      "componentType": 5126,
      "count": 30646,
      "max": [
        0.9999900460243225,
        0.9999989867210388,
        0.9999998211860657,
        1.0
      ],
      "min": [
        -0.9999455213546753,
        -0.9999411702156067,
        -0.9997841119766235,
        -1.0
      ],
      "type": "VEC4"
    },
    {
      "bufferView": 1,
      "componentType": 5126,
      "count": 30646,
      "max": [
        0.9867047667503357,
        0.9980067610740662
      ],
      "min": [
        0.028883039951324463,
        0.0061456202529370785
      ],
      "type": "VEC2"
    },
    {
      "bufferView": 0,
      "componentType": 5125,
      "count": 161532,
      "type": "SCALAR"
    }
  ],
  "asset": {
    "extras": {
      "author": "ernst52 (https://sketchfab.com/ernst52)",
      "license": "CC-BY-4.0 (http://creativecommons.org/licenses/by/4.0/)",
      "source": "https://sketchfab.com/3d-models/german-burgonet-late-16th-century-b582eb59b9bd4897bedde2f295b7952d",
      "title": "German Burgonet late 16th century"
    },
    "generator": "Sketchfab-14.64.0",
    "version": "2.0"
  },
  "bufferViews": [
    {
      "buffer": 0,
      "byteLength": 646128,
      "name": "floatBufferViews",
      "target": 34963
    },
    {
      "buffer": 0,
      "byteLength": 245168,
      "byteOffset": 646128,
      "byteStride": 8,
      "name": "floatBufferViews",
      "target": 34962
    },
    {
      "buffer": 0,
      "byteLength": 735504,
      "byteOffset": 891296,
      "byteStride": 12,
      "name": "floatBufferViews",
      "target": 34962
    },
    {
      "buffer": 0,
      "byteLength": 490336,
      "byteOffset": 1626800,
      "byteStride": 16,
      "name": "floatBufferViews",
      "target": 34962
    }
  ],
  "buffers": [
    {
      "byteLength": 2117136,
      "uri": "scene.bin"
    }
  ],
  "images": [
    {
      "uri": "textures/Material_baseColor.jpeg"
    },
    {
      "uri": "textures/Material_metallicRoughness.png"
    },
    {
      "uri": "textures/Material_normal.png"
    }
  ],
  "materials": [
    {
      "doubleSided": true,
      "name": "Material",
      "normalTexture": {
        "index": 2
      },
      "occlusionTexture": {
        "index": 1
      },
      "pbrMetallicRoughness": {
        "baseColorTexture": {
          "index": 0
        },
        "metallicRoughnessTexture": {
          "index": 1
        }
      }
    }
  ],
  "meshes": [
    {
      "name": "helm main_Material_0",
      "primitives": [
        {
          "attributes": {
            "NORMAL": 1,
            "POSITION": 0,
            "TANGENT": 2,
            "TEXCOORD_0": 3
          },
          "indices": 4,
          "material": 0,
          "mode": 4
        }
      ]
    }
  ],
  "nodes": [
    {
      "children": [
        1
      ],
      "matrix": [
        1.0,
        0.0,
        0.0,
        0.0,
        0.0,
        2.220446049250313e-16,
        -1.0,
        0.0,
        0.0,
        1.0,
        2.220446049250313e-16,
        0.0,
        0.0,
        0.0,
        0.0,
        1.0
      ],
      "name": "Sketchfab_model"
    },
    {
      "children": [
        2
      ],
      "matrix": [
        0.009999999776482582,
        0.0,
        0.0,
        0.0,
        0.0,
        0.0,
        0.009999999776482582,
        0.0,
        0.0,
        -0.009999999776482582,
        0.0,
        0.0,
        0.0,
        0.0,
        0.0,
        1.0
      ],
      "name": "burgonet.fbx"
    },
    {
      "children": [
        3
      ],
      "name": "RootNode"
    },
    {
      "children": [
        4
      ],
      "matrix": [
        187.67495727539063,
        -3.848304815901322e-14,
        2.5683822993320968e-14,
        0.0,
        -2.987942467156746e-14,
        -201.62380932269105,
        -83.76786493500708,
        0.0,
        4.4105986806798533e-14,
        82.52638025263066,
        -198.63563633928368,
        0.0,
        0.0,
        391.76348876953125,
        0.0,
        1.0
      ],
      "name": "helm main"
    },
    {
      "mesh": 0,
      "name": "helm main_Material_0"
    }
  ],
  "samplers": [
    {
      "magFilter": 9729,
      "minFilter": 9987,
      "wrapS": 10497,
      "wrapT": 10497
    }
  ],
  "scene": 0,
  "scenes": [
    {
      "name": "Sketchfab_Scene",
      "nodes": [
        0
      ]
    }
  ],
  "textures": [
    {
      "sampler": 0,
      "source": 0
    },
    {
      "sampler": 0,
      "source": 1
    },
    {
      "sampler": 0,
      "source": 2
    }
  ]
}
